<?xml version="1.0" encoding="utf-8"?>
<!-- Generator: Adobe Illustrator 15.0.0, SVG Export Plug-In . SVG Version: 6.00 Build 0)  -->
<!DOCTYPE svg [
	<!ENTITY ns_extend "http://ns.adobe.com/Extensibility/1.0/">
	<!ENTITY ns_ai "http://ns.adobe.com/AdobeIllustrator/10.0/">
	<!ENTITY ns_graphs "http://ns.adobe.com/Graphs/1.0/">
	<!ENTITY ns_vars "http://ns.adobe.com/Variables/1.0/">
	<!ENTITY ns_imrep "http://ns.adobe.com/ImageReplacement/1.0/">
	<!ENTITY ns_sfw "http://ns.adobe.com/SaveForWeb/1.0/">
	<!ENTITY ns_custom "http://ns.adobe.com/GenericCustomNamespace/1.0/">
	<!ENTITY ns_adobe_xpath "http://ns.adobe.com/XPath/1.0/">
]>
<svg version="1.2" baseProfile="tiny" id="Layer_2" xmlns:x="&ns_extend;" xmlns:i="&ns_ai;" xmlns:graph="&ns_graphs;"
	 xmlns="http://www.w3.org/2000/svg" xmlns:xlink="http://www.w3.org/1999/xlink" x="0px" y="0px" width="297.5px" height="53.5px"
	 viewBox="0 0 297.5 53.5" xml:space="preserve">
<metadata>
	<sfw  xmlns="&ns_sfw;">
		<slices></slices>
		<sliceSourceBounds  height="52.668" width="294.101" x="195.872" y="122.832" bottomLeftOrigin="true"></sliceSourceBounds>
	</sfw>
</metadata>
<g>
	<path fill="#0083CA" d="M155.519,41.123c2.575,0,4.663,2.084,4.663,4.658c0,2.572-2.088,4.66-4.663,4.66
		c-2.571,0-4.656-2.088-4.656-4.66C150.862,43.207,152.947,41.123,155.519,41.123z"/>
	<circle fill="#FFFFFF" cx="155.519" cy="45.78" r="4.052"/>
</g>
<polyline fill="#0083CA" points="2.372,0 2.372,42.945 13.919,52.264 13.919,24.307 48.561,52.465 48.561,1.01 37.016,1.01 
	37.016,27.75 2.372,0 "/>
<polyline fill="#0083CA" points="53.22,1.01 53.22,12.151 68.818,12.151 68.818,42.539 81.377,52.668 81.377,16.607 75.504,12.151 
	96.771,12.151 96.771,1.01 53.22,1.01 "/>
<polyline fill="#0083CA" points="101.635,0 101.635,42.945 112.98,52.264 112.98,24.307 147.823,52.465 147.823,1.01 136.074,1.01 
	136.074,27.75 101.635,0 "/>
<path fill="#0083CA" d="M157.545,47.197c0-1.012-0.203-1.012-0.606-1.213c0.403-0.203,0.811-0.609,0.811-1.215
	c0-0.408-0.204-1.42-1.62-1.42h-2.637v5.066h1.018v-2.027h1.009c0.813,0,0.813,0.203,0.813,1.012c0,0.607,0,0.813,0.203,1.016h1.214
	v-0.203C157.545,48.213,157.545,48.008,157.545,47.197z M155.926,45.578h-1.213v-1.42h1.416c0.606,0,0.81,0.406,0.81,0.611
	C156.735,45.375,156.332,45.578,155.926,45.578z"/>
<path fill="#FF0000" d="M244.843,5.266l-3.443,6.482c-0.406,0.811-1.213,0.606-1.823,0.2l-2.633-1.009l1.822,10.127
	c0.404,1.824-0.81,1.824-1.42,1.011l-4.452-5.063l-0.813,2.429c0,0.408-0.403,0.611-1.01,0.611l-5.672-1.218l1.417,5.47
	c0.405,1.218,0.608,1.62-0.408,2.027l-2.022,1.013l9.723,7.899c0.406,0.203,0.61,0.811,0.406,1.42l-0.813,2.836
	c3.243-0.406,6.283-1.012,9.726-1.42c0.203,0,0.811,0.408,0.811,0.811l-0.404,10.129h1.621l-0.204-10.129
	c0-0.402,0.407-0.811,0.811-0.811c3.242,0.408,6.278,1.014,9.722,1.42l-0.807-2.836c-0.202-0.406,0-1.014,0.404-1.42l9.721-7.899
	l-2.026-1.013c-0.806-0.407-0.603-0.81-0.402-2.027l1.42-5.47l-5.673,1.218c-0.61,0-1.014-0.203-1.014-0.611l-0.81-2.429
	l-4.46,5.063c-0.606,0.813-1.822,0.813-1.416-1.011l1.823-10.127l-2.229,1.212c-0.808,0.407-1.416,0.407-1.824-0.203"/>
<g id="Layer_2_1_">
</g>
<rect x="193.185" y="0.606" fill="#FF0000" width="25.815" height="51.644"/>
<rect x="270.657" y="0.606" fill="#FF0000" width="25.815" height="51.644"/>
</svg>
